<?xml version="1.0" encoding="UTF-8"?>
<!-- Generator: https://ezgif.com/png-to-svg -->
<svg version="1.1" xmlns="http://www.w3.org/2000/svg" width="96" height="96">
<path d="M0 0 C0.99 -0.01 1.98 -0.02 3 -0.03 C5.09 -0.04 7.17 -0.04 9.26 -0.03 C12.43 -0.02 15.6 -0.07 18.77 -0.12 C20.8 -0.13 22.84 -0.13 24.88 -0.12 C25.81 -0.14 26.75 -0.16 27.72 -0.18 C34.74 -0.08 39.37 1.84 44.57 6.6 C49.18 11.73 49.18 17.41 49.17 24.03 C49.18 25.02 49.19 26.01 49.2 27.03 C49.21 29.12 49.21 31.2 49.2 33.29 C49.2 36.46 49.24 39.63 49.29 42.8 C49.3 44.84 49.3 46.87 49.3 48.91 C49.32 49.84 49.33 50.78 49.35 51.75 C49.26 58.77 47.34 63.41 42.57 68.6 C37.44 73.21 31.76 73.22 25.14 73.2 C24.15 73.21 23.16 73.22 22.14 73.23 C20.06 73.24 17.97 73.24 15.88 73.23 C12.71 73.23 9.54 73.27 6.37 73.32 C4.34 73.33 2.3 73.33 0.27 73.33 C-0.67 73.35 -1.61 73.36 -2.58 73.38 C-9.6 73.29 -14.23 71.37 -19.43 66.6 C-24.04 61.47 -24.04 55.79 -24.03 49.17 C-24.04 48.18 -24.05 47.19 -24.06 46.17 C-24.07 44.09 -24.07 42 -24.06 39.91 C-24.05 36.74 -24.1 33.57 -24.15 30.4 C-24.16 28.37 -24.16 26.33 -24.16 24.3 C-24.17 23.36 -24.19 22.42 -24.21 21.46 C-24.11 14.43 -22.19 9.8 -17.43 4.6 C-12.3 -0 -6.62 -0.01 0 0 Z M-12.8 14.04 C-16.64 20.09 -15.65 27.26 -15.67 34.19 C-15.68 36.4 -15.71 38.6 -15.74 40.81 C-15.75 42.22 -15.75 43.64 -15.76 45.06 C-15.77 46.34 -15.78 47.62 -15.79 48.93 C-15.27 54.25 -13.9 58.17 -9.99 61.98 C-3.94 65.81 3.23 64.82 10.16 64.84 C12.37 64.85 14.57 64.88 16.78 64.91 C18.19 64.92 19.61 64.93 21.03 64.93 C22.31 64.94 23.58 64.95 24.9 64.96 C30.22 64.44 34.14 63.07 37.95 59.16 C41.78 53.11 40.79 45.94 40.81 39.01 C40.82 36.81 40.85 34.6 40.88 32.4 C40.89 30.98 40.89 29.56 40.9 28.14 C40.91 26.87 40.92 25.59 40.93 24.27 C40.41 18.96 39.04 15.04 35.13 11.23 C29.08 7.39 21.91 8.38 14.98 8.36 C12.78 8.35 10.57 8.32 8.37 8.29 C6.95 8.28 5.53 8.28 4.11 8.27 C2.83 8.26 1.56 8.25 0.24 8.25 C-5.08 8.76 -8.99 10.13 -12.8 14.04 Z " fill="#000000" transform="translate(35.4296875,11.3984375)"/>
<path d="M0 0 C4.69 2.9 8.78 6.42 10.23 11.89 C11.17 18.74 11.39 24.99 7.67 31.02 C3.66 35.99 0.31 38.48 -6.01 39.34 C-13.13 39.7 -18.34 39.19 -23.99 34.64 C-29.08 29.63 -30.03 26.06 -30.39 19.02 C-30.18 12.14 -28.59 7.8 -23.77 2.89 C-17.29 -2.63 -7.85 -3.14 0 0 Z M-19.77 12.89 C-21.38 16.12 -21.36 19.4 -20.77 22.89 C-19.03 25.92 -16.93 28.31 -13.77 29.89 C-8.64 30.5 -8.64 30.5 -3.94 28.85 C-0.14 25.72 1.12 24.03 1.61 19.14 C1.58 15.79 0.99 14.05 -1.14 11.46 C-4.67 8.01 -6.69 7.5 -11.66 7.54 C-15.38 8.17 -17.17 10.23 -19.77 12.89 Z " fill="#000000" transform="translate(57.765625,29.10546875)"/>
<path d="M0 0 C3 0.12 3 0.12 4 1.12 C4.12 4.12 4.12 4.12 4 7.12 C3 8.12 3 8.12 0 8.25 C-3 8.12 -3 8.12 -4 7.12 C-4.12 4.12 -4.12 4.12 -4 1.12 C-3 0.12 -3 0.12 0 0 Z " fill="#000000" transform="translate(68,23.875)"/>
</svg>
