<?xml version="1.0" encoding="UTF-8"?>
<!-- Generator: https://ezgif.com/png-to-svg -->
<svg version="1.1" xmlns="http://www.w3.org/2000/svg" width="100" height="100">
<path d="M0 0 C1.62 -0.01 1.62 -0.01 3.27 -0.02 C5.55 -0.03 7.83 -0.03 10.11 -0.03 C13.58 -0.04 17.05 -0.08 20.52 -0.11 C22.74 -0.12 24.97 -0.12 27.19 -0.12 C28.22 -0.14 29.24 -0.15 30.3 -0.17 C37.91 -0.12 44.13 1.33 50.1 6.23 C50.87 7.18 50.87 7.18 51.67 8.15 C52.2 8.77 52.74 9.4 53.29 10.04 C57.78 16.88 58.26 22.58 58.26 30.61 C58.27 32.22 58.27 32.22 58.28 33.87 C58.3 36.14 58.3 38.41 58.29 40.68 C58.29 44.13 58.33 47.58 58.38 51.03 C58.38 53.24 58.39 55.45 58.39 57.67 C58.4 58.69 58.42 59.71 58.44 60.76 C58.36 68.63 56.46 75.33 51.04 81.25 C43.97 87.89 36.87 88.8 27.52 88.8 C26.45 88.81 25.37 88.82 24.26 88.83 C21.99 88.84 19.72 88.84 17.45 88.84 C14 88.84 10.55 88.88 7.1 88.92 C4.89 88.93 2.68 88.93 0.46 88.93 C-0.56 88.95 -1.58 88.96 -2.63 88.98 C-10.86 88.9 -17.28 86.6 -23.64 81.31 C-24.16 80.68 -24.68 80.05 -25.21 79.4 C-25.74 78.77 -26.28 78.14 -26.83 77.5 C-30.72 71.39 -30.53 65.13 -30.54 58.13 C-30.55 57.05 -30.56 55.97 -30.56 54.86 C-30.57 52.58 -30.58 50.3 -30.58 48.02 C-30.58 44.55 -30.62 41.08 -30.66 37.61 C-30.66 35.39 -30.67 33.16 -30.67 30.94 C-30.68 29.91 -30.7 28.88 -30.71 27.82 C-30.66 20.03 -29.14 13.83 -24.06 7.78 C-23.32 7.16 -22.59 6.54 -21.83 5.9 C-21.1 5.26 -20.37 4.62 -19.62 3.96 C-13.47 -0.19 -7.16 0.02 0 0 Z M-21.21 12.34 C-25.91 19.17 -26.36 26.36 -26.38 34.48 C-26.38 35.25 -26.38 36.02 -26.39 36.81 C-26.39 38.43 -26.39 40.05 -26.39 41.68 C-26.39 44.13 -26.41 46.59 -26.43 49.04 C-26.68 64.29 -26.68 64.29 -19.98 77.61 C-13.34 84.08 -4.91 84.49 3.94 84.5 C4.71 84.51 5.48 84.51 6.27 84.51 C7.89 84.52 9.51 84.52 11.13 84.52 C13.59 84.52 16.04 84.54 18.5 84.56 C33.74 84.81 33.74 84.81 47.07 78.11 C53.53 71.47 53.95 63.04 53.96 54.19 C53.96 53.42 53.97 52.65 53.97 51.86 C53.98 50.24 53.98 48.62 53.98 47 C53.98 44.54 54 42.09 54.02 39.63 C54.27 24.38 54.27 24.38 47.57 11.06 C40.92 4.6 32.5 4.18 23.65 4.17 C22.88 4.16 22.11 4.16 21.32 4.16 C19.7 4.15 18.08 4.15 16.45 4.15 C14 4.15 11.54 4.13 9.09 4.11 C-7.48 3.88 -7.48 3.88 -21.21 12.34 Z " fill="#000000" transform="translate(36.20703125,5.6640625)"/>
<path d="M0 0 C5.46 2.84 10.82 8.55 12.77 14.39 C13.9 29.08 13.9 29.08 8.77 35.39 C3.18 40.95 -0.98 43.67 -9.04 43.76 C-16.15 43.64 -19.81 42.83 -24.91 37.7 C-30.72 31.25 -31.75 26.61 -31.61 17.87 C-30.8 10.39 -26.47 6.15 -20.88 1.52 C-15.43 -2.22 -6.14 -1.69 0 0 Z M-23.54 11.01 C-27.18 16.13 -26.81 21.26 -26.23 27.39 C-24.07 31.87 -21.3 34.57 -17.23 37.39 C-11.83 39.19 -6.29 39.09 -0.92 37.26 C3.21 34.38 6.15 31.25 7.77 26.39 C8.3 20.42 8.3 15.45 4.77 10.39 C0.35 6.05 -2.79 4.22 -8.98 4.07 C-15.81 4.14 -19.03 5.88 -23.54 11.01 Z " fill="#000000" transform="translate(59.23046875,28.61328125)"/>
<path d="M0 0 C3 0.12 3 0.12 4 1.12 C4.12 4.12 4.12 4.12 4 7.12 C3 8.12 3 8.12 0 8.25 C-3 8.12 -3 8.12 -4 7.12 C-4.12 4.12 -4.12 4.12 -4 1.12 C-3 0.12 -3 0.12 0 0 Z " fill="#000000" transform="translate(74,21.875)"/>
</svg>
