<?xml version="1.0" encoding="UTF-8"?>
<svg id="layer" xmlns="http://www.w3.org/2000/svg" viewBox="0 0 399.82 257.36">
  <defs>
    <style>
      .cls-1 {
        fill: #ff4655;
      }
    </style>
  </defs>
  <path class="cls-1" d="M299.96,79.06V1.26c0-1.2-1.5-1.7-2.3-.8l-85,106.2c-.7,.8-.1,2.1,1,2.1h61.4c1.7,0,3.2-.8,4.2-2.1l19.4-24.2c.8-.9,1.3-2.1,1.3-3.4h0Zm-198.8,3.5l63.8,79.8c1,1.3,2.6,2,4.3,2h61.4c1.1,0,1.7-1.2,1-2L102.16,.56c-.8-.9-2.3-.4-2.3,.8V79.16c.1,1.2,.5,2.4,1.3,3.4h0Z"/>
  <path class="cls-1" d="M356.7,211.06h14.3v43.8c0,.6,.5,1,1,1h8.2c.6,0,1-.5,1-1v-43.8h18c.5,0,.8-.6,.5-1l-6.2-7.7c-.5-.6-1.3-1-2.1-1h-34.8c-.6,0-1,.5-1,1v7.7c.1,.5,.5,1,1.1,1M11,254.96l42-52.6c.3-.4,0-1-.5-1h-10.4c-.8,0-1.6,.4-2.1,1l-29.8,37.3v-37.3c0-.6-.5-1-1-1H1c-.6,0-1,.5-1,1v52.6c0,.6,.5,1,1,1H9c.7,0,1.5-.4,2-1m29.7,0l14.4-18.1,14.5,18.1c.5,.6,1.3,1,2.1,1h8c.6,0,1-.5,1-1v-52.6c0-.6-.5-1-1-1h-6.7c-1.6,0-3.2,.7-4.2,2l-41.2,51.6c-.3,.4,0,1,.5,1h10.4c.9,0,1.6-.4,2.2-1m29.8-38.4v24.2l-9.7-12.1,9.7-12.1Zm234.5,38.4l-42-52.6c-.5-.6-1.3-1-2.1-1h-8c-.6,0-1,.5-1,1v52.6c0,.6,.5,1,1,1h8c.8,0,1.6-.4,2.1-1l14.5-18.1,14.4,18.1c.5,.6,1.3,1,2.1,1h10.5c.6,0,.9-.6,.5-1m-33.2-26.3l-9.7,12.1v-24.2l9.7,12.1Zm-115.6-28.7c-15.8,0-28.7,12.8-28.7,28.7s12.8,28.7,28.7,28.7,28.7-12.8,28.7-28.7c0-15.9-12.9-28.7-28.7-28.7m0,47.6c-10.2,0-18.4-8.5-18.4-18.9s8.2-18.9,18.4-18.9,18.4,8.5,18.4,18.9-8.2,18.9-18.4,18.9m182.1-45.2v37.3l-29.8-37.3c-.5-.6-1.3-1-2.1-1h-8c-.6,0-1,.5-1,1v25.3c0,.6,.2,1.2,.6,1.7l8.5,10.7c.4,.5,1.1,.2,1.1-.4v-22l29.8,37.3c.5,.6,1.3,1,2.1,1h8c.6,0,1-.5,1-1v-52.6c0-.6-.5-1-1-1h-8.2c-.5,0-1,.4-1,1m-100.2,11.4v-11.4c0-.6-.5-1-1-1h-42c-.6,0-1,.5-1,1v52.6c0,.6,.5,1,1,1h8.2c.6,0,1-.5,1-1v-43.8h23.5l-15.9,19.9c-.3,.4-.3,.9,0,1.3l18.1,22.7c.5,.6,1.3,1,2.1,1h10.5c.5,0,.8-.6,.5-1l-18.5-23.5,12.9-16.2c.4-.4,.6-1,.6-1.6m-144,42.2h24.3c.8,0,1.6-.4,2.1-1l6.1-7.7c.3-.4,0-1-.5-1h-22.8v-43.8c0-.6-.5-1-1-1h-8.2c-.6,0-1,.5-1,1v52.6c0,.4,.4,.9,1,.9"/>
</svg>